<?xml version="1.0" encoding="utf-8"?>
<!-- Generator: Adobe Illustrator 24.0.0, SVG Export Plug-In . SVG Version: 6.00 Build 0)  -->
<svg version="1.1" id="Layer_1" xmlns="http://www.w3.org/2000/svg" xmlns:xlink="http://www.w3.org/1999/xlink" x="0px" y="0px"
	 viewBox="0 0 800 672" style="enable-background:new 0 0 800 672;" xml:space="preserve">
<style type="text/css">
	.st0{fill:#2D2D2B;}
	.st1{fill:#B4915B;}
	.st2{fill:none;stroke:#2D2D2B;stroke-width:4;stroke-linecap:round;stroke-miterlimit:10;}
</style>
<g>
	<g>
		<path class="st0" d="M222.7,150l-2.9-2.3l-6.5-5.1l-18.4-14.3c-4.8-3.7-12.4-3.8-17.6,1.5l8.2,6.4c1.7-0.9,3-1.2,4.4-0.1
			c0,0,9.6,7.5,17.7,13.7c2.4,1.9,4.7,3.6,6.5,5.1c2.5,2,4.2,3.3,4.4,3.4c7.9,6.2,4.8,15.9,4.6,16.5
			C223.5,174.1,234.6,159.3,222.7,150z"/>
		<path class="st0" d="M202.3,97.4c1.9-1.7,2-4.6,0.4-6.4c-1.6-1.7-4.5-1.7-6.4,0c-1.8,1.7-1.9,4.5-0.3,6.3
			C197.7,99.1,200.5,99,202.3,97.4z"/>
		<path class="st0" d="M209.9,90.2c1.8-1.7,2-4.6,0.4-6.4c-1.6-1.7-4.5-1.7-6.4,0c-1.9,1.7-1.9,4.5-0.3,6.3
			C205.2,91.9,208,92,209.9,90.2z"/>
		<path class="st0" d="M233,60c2.1-1.4,2.8-4.2,1.4-6.1c-1.4-2-4.2-2.4-6.3-0.9c-2.1,1.4-2.6,4.2-1.3,6.2
			C228.2,61.1,230.9,61.5,233,60z"/>
		<path class="st0" d="M228.9,62.9c-2.1,1.4-2.7,4.3-1.4,6.2c1.4,2,4.2,2.4,6.3,0.9c2-1.4,2.6-4.2,1.3-6.2
			C233.8,61.9,230.9,61.5,228.9,62.9z"/>
		<path class="st0" d="M242.3,64.2c2.1-1.4,2.7-4.3,1.4-6.2c-1.4-2-4.2-2.4-6.3-0.9c-2.1,1.4-2.6,4.2-1.3,6.2
			C237.5,65.1,240.2,65.6,242.3,64.2z"/>
		<path class="st0" d="M302,75l-5.9,2.6l0,0l-8.1-18.1l3.4-8.1c2.1,0,4,0,5.1,2.4l4.6,10.2c3.6,7.9,15.8,1.4,15.8,1.4
			s-4.8,0.4-5.9-2l-6.7-14.9c-2.5-5.6-11.2-9.2-18.8-5.8l-7.4,17.5l9.7,21.6c-0.2,0.1-0.4,0.2-0.5,0.3c-0.6,0.3-1.2,0.6-1.8,1
			c-1,0.5-2.1,1.1-3.1,1.7l-13.9-20c-3.5-5-11-6.1-17.2-3.9l5.9,8.5c1.2,0.2,3.2-0.2,4.2,1.2l12.9,18.7c-2.7,1.6-5.3,3.3-7.8,5
			l-13.2-19.1c-3.5-5-10.1-6.7-17.2-3.9l5.9,8.5c2-0.4,3.2-0.2,4.2,1.2L259,99.6c-2.5,1.8-4.9,3.6-7.4,5.5l-13.4-19.4
			c-3.5-5-10.3-6.6-17.3-3.8l5.9,8.5c2-0.4,3.2-0.2,4.2,1.2l13.4,19.3c-1.7,1.4-3.3,2.8-5,4.3l-16-16.9c-4.2-4.5-12.3-5-17.7-1.1
			l7.1,7.5c1.3-0.1,3.1-0.7,4.3,0.6l15.4,16.3c-3.1,3-6,6-9,9.1L191,101.2c-4.5-4.1-12.1-4.7-17.6,0.2l7.7,6.9
			c1.8-0.7,3.1-0.9,4.4,0.2l32,28.9l3.2,2.9l5.3,0.1c3.2-3.6,6.5-7.1,10-10.5c0.8-0.8,1.6-1.6,2.4-2.4c0.4,0.5,0.9,1.1,1,1.1
			c6.5,6.5,15.8-3.5,15.8-3.5s-5.1,1.2-6.9-0.6l-3.2-3.3c0.7-0.7,1.5-1.3,2.3-2c12.2-10.5,25.4-19.8,39.6-27.7
			c1.4-0.8,2.9-1.6,4.3-2.3c0.2,0.5,0.4,1,0.5,1.1c4.1,8.1,16,1.8,16,1.8s-5.2-0.5-6.3-2.9l-1.9-4.2c1.4-0.7,2.8-1.3,4.2-2
			c0.5-0.3,1-0.5,1.4-0.6c3.1-1.1,3.7,0.7,4.8,1.2l9.3-4.2c-0.5-0.8-1.1-1.5-1.8-2.1C313.6,73.9,307,72.8,302,75z"/>
		<path class="st0" d="M363.6,69.1c-2.4,0.4-4.2,2.7-3.8,5c0.4,2.3,2.8,3.9,5.2,3.5c2.5-0.4,4.3-2.6,3.9-4.9
			C368.5,70.3,366.2,68.7,363.6,69.1z"/>
		<path class="st0" d="M353.5,70.8c-2.5,0.4-4.3,2.7-3.9,5c0.4,2.4,2.8,3.9,5.3,3.4c2.5-0.4,4.2-2.6,3.8-4.9
			C358.3,72,356,70.4,353.5,70.8z"/>
		<path class="st0" d="M396.3,66.1c-2.5,0-4.7,1.9-4.7,4.3c0,2.4,2,4.3,4.6,4.3c2.4,0,4.6-1.8,4.6-4.2S398.7,66.1,396.3,66.1z"/>
		<path class="st0" d="M406.5,58.5l0.1-4.5l0.4-23.1c0.1-6.1-5.4-11.4-11.7-13.1L395,28.2c1.9,0.9,2.7,1.7,2.7,3.5L397.4,54
			c-3.7,0-7.3,0.2-10.9,0.4l-3.6-22.5l-13.6-9.1c-5.3-3.6-13.6-3-19.1,3.1l3,18.7l6.3,4.2l1.4,8.4c-5.5,0.9-10.9,2-16.3,3.3
			l-3.8-23.4c-1-6-7.4-11.1-13.9-10.9l1.7,10.2c2.2,0.6,3,1.3,3.3,2.9l3.8,23.5l0.5,2.9l5.1,4.1c10.7-2.8,21.8-4.9,33.1-6.1
			c-0.8-0.4-1.7-1-2.4-1.6c-0.1-0.1-0.2-0.2-0.3-0.2c-0.5-0.5-0.9-1.1-1-1.7l-0.7-4.2L368,44l-6.3-4.1l-1.6-9.5
			c1.9-0.3,2.7-0.5,4.7,0.2l9.6,7.2l2.8,17.4l0.6,3.8l5.8,3.9c5.6-0.4,11.2-0.6,16.9-0.6c2.9,0,5.7,0,8.5,0.2
			C407.9,61.4,406.5,59.9,406.5,58.5z"/>
		<path class="st0" d="M457.1,27.1l-4.3,18.5l4.2,6.3l-1.9,8.3c-5.4-1.2-10.8-2.3-16.3-3.2l5.4-23.1c1.4-6-1.9-12-8.7-15.3
			l-2.3,10.1c1.7,1.2,2.3,2.2,1.9,3.9l-5.3,23.1l-0.7,2.9l3.2,5.8c11.2,1.5,22.2,3.8,32.9,6.9c-1.1-1.3-2.4-3.2-2-4.7l1-4.1
			l2.7-11.8l-4.2-6.3l2.1-9.3c1.8,0.4,3.7,0.8,5.2,2.2l5.7,8.3l-1,4.2c-0.7,3.1-5.8,3.8-6.5,3.8c0.6,0.1,13.3,3.9,15.4-5.3l1-4.2
			l-7.6-12.4C473.4,26.4,463.7,23.3,457.1,27.1z"/>
		<path class="st0" d="M453.2,72.2c-2.4-0.5-4.9,0.9-5.4,3.2s1.1,4.6,3.5,5.2c2.5,0.6,5-0.8,5.5-3.1
			C457.3,75.2,455.7,72.8,453.2,72.2z"/>
		<path class="st0" d="M443.2,69.9c-2.5-0.6-5,0.9-5.5,3.2c-0.5,2.3,1.1,4.6,3.6,5.2c2.5,0.6,4.8-0.8,5.4-3.1
			C447.2,72.8,445.7,70.5,443.2,69.9z"/>
		<path class="st0" d="M506.3,16.3l-3.9,9.6c1.4,1.6,1.9,2.6,1.3,4.2L487.3,70l-0.4,0.8c-1.5,3.7,0,6.6,2.2,8.8
			c2.9,2.8,7,4.2,7.4,4.4c-0.1-0.1-0.6-0.8-1.2-1.7c-0.8-1.4-1.7-3.4-1.2-4.8l1.6-4l16.6-40.6C514.8,27.2,511.9,19.5,506.3,16.3z"/>
		<path class="st0" d="M506.2,10.3c1.9,2.6,3.7,3.3,6.2,4.3c3.4,1.4,7.4,1.2,12.2-0.6l0.3-0.8c-0.9-0.4-2.6-1-5-0.1
			c-2.1,0.1-3.7-0.6-5.4-1.3c-1.7-0.7-4.3-1.8-5.3-4.1c-0.9-0.4-0.9-0.4-0.9-0.4L507.6,7l-6,5l-0.3,0.8c1.1-0.4,2-0.1,3.2-0.5
			C505.1,10.7,506.2,10.3,506.2,10.3z"/>
		<path class="st0" d="M533.3,108.2c-2-1.4-4.8-1-6.2,0.9c-1.4,1.9-0.7,4.7,1.3,6.1c2.1,1.5,4.9,1.2,6.2-0.8
			C536,112.5,535.4,109.6,533.3,108.2z"/>
		<path class="st0" d="M524.9,102.3c-2.1-1.5-4.9-1.1-6.3,0.9c-1.4,1.9-0.7,4.7,1.4,6.1c2.1,1.5,4.8,1.1,6.2-0.9
			C527.5,106.5,527,103.7,524.9,102.3z"/>
		<path class="st0" d="M605.3,97.5c1.7-1.6,1.7-4.5,0-6.3c-1.8-1.8-4.6-2-6.4-0.3c-1.7,1.6-1.7,4.5,0.1,6.4
			C600.7,99,603.6,99.2,605.3,97.5z"/>
		<path class="st0" d="M615.4,94.7c1.7-1.6,1.7-4.5,0-6.3c-1.8-1.8-4.6-2-6.4-0.3c-1.7,1.6-1.7,4.5,0.1,6.4
			C610.8,96.2,613.6,96.3,615.4,94.7z"/>
		<path class="st0" d="M581.8,101.6l-14.3,13.7l13.4,14l-2.5,2.4c-4.5-4.9-9.3-9.6-14.2-14.1c-1-0.9-2-1.8-3-2.7
			c-0.4-0.4-0.9-0.8-1.3-1.2L573,95l-3.3-16c-1.3-6.2-7.6-11.7-15.8-11.2L543,83.3l1.6,7.4l-5,7c-4.5-3.2-9.2-6.2-13.9-9.1
			l13.7-19.5c3.5-5,2.4-13.1-2.3-17.5l-6,8.5c1.2,2,1.2,3,0.3,4.4l-13.7,19.5l-1.7,2.4l0.8,6.6c9.8,5.6,19.2,11.9,28,18.8
			c-0.6-1.6-1.1-4-0.2-5.3l2.4-3.4l7-10l-1.6-7.3l5.5-7.9c1.6,1.1,2.3,1.6,3.3,3.4l1.8,11.8l-10.2,14.5l-2.2,3.1l1.4,7
			c10.4,8.8,20.1,18.6,28.8,29.1c-0.3-1.6-0.5-4.5,0.8-5.7l2.9-2.8l17-16.3c4.4-4.2,4.8-13.7-0.2-18.9L581.8,101.6z M594,116.7
			l-6.9,6.6l-7-7.3l5.6-5.4l9.4,1.1C595.8,113.7,595.8,114.9,594,116.7z"/>
		<path class="st0" d="M612.4,98.7c-1.8-1.8-4.6-1.9-6.3-0.3c-1.7,1.6-1.8,4.4,0,6.3c1.8,1.8,4.6,2,6.4,0.3
			C614.2,103.4,614.2,100.5,612.4,98.7z"/>
	</g>
	<path class="st1" d="M213.1,449.3c-0.3,1.3-0.6,2.6-0.9,3.9c6.3,1.9,6.5,3.5,2.9,10.6c-3.3,6.6-10.8,20.4-19.2,34.8
		c-0.7-9.7-1.4-32.4-1.5-41.7c-0.1-4.6,0.1-5.4,5.9-5.5c0.4-1.3,0.7-2.6,1-3.9c-7.8-1.2-15.6-2.5-23.4-3.9c-0.4,1.3-0.7,2.6-1,3.9
		c4.8,1.5,5.4,3.4,5.7,11.7c0.2,11.7,1.6,49.6,2.1,58.2c1.5,0.2,3,0.5,4.6,0.7c10.9-18.9,24.9-43.9,29.1-51.8
		c5.1-9.7,6.8-10.4,12.1-10.5c0.3-1.3,0.5-2.6,0.8-3.9C225.3,451.1,219.2,450.2,213.1,449.3z"/>
	<path class="st1" d="M236.1,452.6c-0.3,1.3-0.5,2.6-0.8,3.9c5.7,1.4,6.3,2.3,4.6,11.3c-2.6,13.5-5.1,27-7.7,40.5
		c-1.7,8.9-2.6,9.5-9,9.4c-0.3,1.3-0.5,2.6-0.8,3.9c8.6,1.1,17.2,2.2,25.9,3.1c0.2-1.3,0.5-2.6,0.7-3.9c-6.2-1.5-6.8-2.3-5.2-11.1
		c2.4-13.5,4.8-27.1,7.1-40.5c1.6-8.9,2.5-9.6,8.4-9.7c0.2-1.3,0.5-2.6,0.7-3.9C252,454.5,244,453.6,236.1,452.6z"/>
	<path class="st1" d="M303.4,463.9c-2.9-3.1-7.3-5-13.4-5.5c-7.3-0.6-14.6-1.3-22-2.1c-0.2,1.3-0.4,2.6-0.6,3.9
		c5.7,1.1,6.4,2.2,5,11.1c-2,13.6-4.1,27.2-6.1,40.8c-1.3,8.9-2.2,9.2-8.6,9.5c-0.2,1.3-0.4,2.6-0.6,3.9c8.9,0.9,17.8,1.8,26.7,2.5
		c0.2-1.3,0.4-2.6,0.5-4c-7.2-1.5-7.7-2-6.5-10.9c0.7-4.8,1.3-9.7,2-14.5c1.5,0.7,3,1.3,4.5,2c0.6,0.2,1.6,0.4,2.4,0.4
		c8.7,0.6,19.5-5.2,21.1-20.7C308.6,473,306.9,467.7,303.4,463.9z M296.4,479.4c-1.7,14.1-8.1,16.5-11.8,16.2
		c-1.7-0.2-3.3-0.7-4.2-1.5c1.2-9.2,2.5-18.3,3.8-27.5c0.2-1.6,0.5-2.7,1.1-3.2c0.6-0.5,1.5-0.9,3.2-0.8
		C293.5,463.1,297.8,467.5,296.4,479.4z"/>
	<path class="st1" d="M352.4,476.7c0.5-9,1.3-9.7,7.2-10.3c0.1-1.3,0.1-2.6,0.2-4c-8-0.2-16-0.5-24-0.9c-0.1,1.3-0.2,2.6-0.3,4
		c5.8,0.9,6.5,1.8,5.9,10.8c-0.9,13.6-1.8,27.3-2.8,40.9c-0.6,9-1.4,9.6-7.8,10.1c-0.1,1.3-0.2,2.6-0.3,4c8.7,0.4,17.4,0.8,26,1
		c0-1.3,0.1-2.7,0.2-4c-6.3-1.1-7-1.8-6.6-10.7C350.9,504,351.6,490.3,352.4,476.7z"/>
	<path class="st1" d="M387.6,490.6c-7-4.8-9.8-8.4-9.7-14.3c0.2-6,3.2-10.4,7.7-10.3c7.2,0.1,9.3,7.9,10.9,14.8c1-0.3,2-0.7,3-1
		c-0.7-6.8-1.2-12.4-1.5-16.3c-1.7-0.3-5.8-1.9-11.1-2c-11.6-0.1-18.3,8.6-18.7,20c-0.4,11.2,4.9,16.7,13.3,22.8
		c6.7,4.9,9.7,8.6,9.7,14.8c0,6.9-3.2,10.9-8.3,10.9c-8.3-0.1-12.6-11.9-14-18.7c-1.1,0.3-2.2,0.6-3.2,0.9
		c0.4,5.1,1.4,16.3,1.8,18.7c3.9,1.6,8.6,3.5,14.1,3.6c12.1,0.1,20.4-9.2,20.3-21.9C401.7,501.9,396.2,496.3,387.6,490.6z"/>
	<path class="st1" d="M470.4,526.9c-6.5-0.4-7.2-1-7.9-9.9c-1-13.7-2-27.4-3-41.1c-0.7-8.9-0.2-9.6,5.8-10.8c-0.1-1.3-0.2-2.6-0.3-4
		c-8,0.5-16,0.8-24,1.1c0.1,1.3,0.1,2.6,0.2,4c5.9,0.6,6.7,1.2,7.2,10.2c0.3,5.1,0.6,10.3,1,15.4c-7.2,0.3-14.5,0.5-21.8,0.7
		c-0.2-5.1-0.4-10.3-0.5-15.4c-0.3-8.9,0.3-9.7,6.2-10.6c-0.1-1.3-0.1-2.6-0.2-4c-8,0.2-16,0.4-23.9,0.5c0,1.3,0,2.7,0.1,4
		c5.9,0.6,6.7,1.4,6.9,10.3c0.3,13.7,0.6,27.4,0.9,41.2c0.2,8.9-0.7,9.5-6.9,10.4c0,1.3,0,2.7,0.1,4c8.6-0.1,17.3-0.2,25.9-0.5
		c0-1.3-0.1-2.7-0.2-4c-6.3-0.7-7.1-1.2-7.4-10.1c-0.2-6.8-0.5-13.5-0.7-20.2c7.3-0.2,14.6-0.4,21.9-0.7c0.4,6.7,0.8,13.5,1.2,20.2
		c0.6,8.9,0.1,9.3-6.5,10.6c0.1,1.3,0.1,2.6,0.2,4c8.7-0.3,17.4-0.7,26-1.2C470.6,529.6,470.5,528.2,470.4,526.9z"/>
	<path class="st1" d="M513.8,465.6c1,1.4,3.3,5.3,4.9,10.2c1-0.2,2-0.4,2.9-0.6c-1.4-6.9-3.1-16.3-3.9-20.7
		c-0.7,0.1-1.5,0.1-2.2,0.2c-1,2.2-2,2.9-4.1,3.1c-10.3,0.9-20.6,1.8-31,2.5c-2.3,0.2-3.3,0-4.7-2.4c-0.8,0-1.6,0.1-2.3,0.1
		c0.3,5.2,0.6,13.6,0.7,21.4c1-0.1,2-0.1,3-0.2c0.6-4.4,1.4-8.3,2.3-10.4c1.2-2.7,2.4-3.7,6.7-4c1.6-0.1,3.2-0.2,4.8-0.3
		c1.9,16.8,3.8,33.5,5.7,50.3c1,9,0.3,9.7-6.7,10.9c0.1,1.3,0.3,2.6,0.4,4c9.3-0.6,18.6-1.4,27.9-2.2c-0.2-1.3-0.3-2.6-0.5-4
		c-7.5-0.1-8.5-0.7-9.6-9.6c-2.1-16.8-4.2-33.5-6.3-50.3c1.6-0.2,3.3-0.3,5-0.4C511.3,462.7,512.1,463.5,513.8,465.6z"/>
	<path class="st1" d="M582.8,516.1c-5.6-0.1-6.5-0.8-11.5-10.2c-8.9-17-17.9-35.3-26.1-53.2c-1.2,0.5-2.4,0.9-3.5,1.4
		c-2.1,19-4.6,37.9-7.4,56.9c-1.4,9.3-2.6,10.3-7.8,11.7c0.2,1.3,0.4,2.6,0.6,4c6.9-0.7,13.8-1.4,20.7-2.2c-0.2-1.3-0.5-2.6-0.7-3.9
		c-6.7,0-8.8-0.7-8.2-7.6c0.3-3.4,0.8-7.6,1.1-11c5.3-0.6,10.6-1.2,15.9-1.8c2,4.1,4.2,8.7,5.6,11.8c2,4.4,2.3,5.6-2.8,7.2
		c0.2,1.3,0.5,2.6,0.7,3.9c8.1-1,16.2-2,24.2-3.2C583.3,518.7,583,517.4,582.8,516.1z M540.4,496.4c0.8-8,1.8-15.4,2.7-23.3
		c3.3,7.3,6.7,14.6,10.2,21.8C549.1,495.4,544.7,495.9,540.4,496.4z"/>
	<path class="st1" d="M640.3,507.7c-2.7-0.6-3.8-1.3-6.5-3.7c-2.2-2-4.8-4.5-9.1-9.8c-3.7-4.4-8.6-10.7-10.6-13.7
		c4.6-3.6,7.9-9.4,5.4-18.8c-1.8-6.5-5.1-10.7-8.9-13.1c-3.9-2.4-8.1-2.8-14.9-1.7c-7.4,1.2-14.8,2.3-22.2,3.4
		c0.3,1.3,0.6,2.6,0.9,3.9c5.9-0.2,6.9,0.8,8.8,9.2c3,13.5,6,27,9.1,40.5c1.9,8.6,1.3,9.5-4.8,11.3c0.3,1.3,0.6,2.6,0.8,3.9
		c8.5-1.2,17-2.5,25.5-3.9c-0.3-1.3-0.7-2.6-1-3.9c-6.4,0.1-7.4-0.5-9.5-9.1c-1.2-5.2-2.4-10.3-3.6-15.4c0.5,0,1.1-0.1,1.6-0.2
		c2.6-0.4,3.8,0.1,5.7,2.7c4.3,5.9,8.3,11.9,13,17.2c3.6,4,7.4,6.3,18.1,5.1c1-0.1,2-0.2,2.5-0.3C640.5,510.2,640.4,509,640.3,507.7
		z M607.9,478.3c-1.2,2.3-3.7,3.5-7.1,4c-0.7,0.1-1.4,0.2-2.2,0.4c-2-8.4-4-16.8-6-25.3c-0.5-2.1-0.7-3.4-0.3-4.1
		c0.3-0.7,1.2-1.3,3.3-1.6c4.3-0.7,10,2.5,12.9,13.7C609.9,470.7,609.8,474.9,607.9,478.3z"/>
	<path class="st0" d="M212.5,599.4l5.5,1l5.7-33.7c-3.6-0.7-7.2-1.4-10.8-2.1c-32.3-5.3-59.7-12.7-90.7-22.7l86.7,45.8
		c-61.8-11.5-122.5-28.9-180.7-51.9c28-19.4,62.1-39,62.5-39.2l3.8-2.2l-1.3-4.2c-0.2-0.5-14.2-45.6-17.5-73.9
		c21.2,8.4,42.8,15.8,64.6,22.5l3.1-10.6c-24.3-7.4-48.2-15.8-71.7-25.4l-7.8-3.2l0.2,8.4c0.7,23.9,13.3,67.5,17.4,81.3
		c-11,6.4-43.6,25.8-67.9,43.4l-8,5.8l9.2,3.7C78.6,568,145.8,587.5,212.5,599.4z"/>
	<path class="st0" d="M659.7,438.5c21.8-6.6,43.4-14.1,64.6-22.5c-3.3,28.3-17.4,73.4-17.5,73.9l-1.3,4.2l3.8,2.2
		c0.4,0.2,34.5,19.8,62.5,39.2c-58.2,23-118.9,40.5-180.7,51.9l86.7-45.8c-31,10-58.4,17.4-90.6,22.7c-3.6,0.7-7.2,1.5-10.8,2.1
		l5.7,33.7l5.5-1c66.7-11.9,133.9-31.3,197.7-57.3l9.2-3.7l-8-5.8c-24.3-17.6-56.9-37-67.9-43.4c4.1-13.8,16.7-57.3,17.4-81.3
		l0.2-8.4l-7.8,3.2c-23.5,9.6-47.5,18-71.7,25.4L659.7,438.5z"/>
	<path class="st0" d="M640.8,399.7l-0.2-0.6l-2.7-9.4l-5.3,1.5c-6.4,1.9-12.8,3.6-19.3,5.3c-1.8,0.5-3.7,1-5.6,1.4
		c-19.2,5-38.6,9.2-58.1,12.7c-4.3,0.8-8.6,1.5-12.9,2.2c-4.4,0.8-8.7,1.4-13.1,2.1c-10,1.5-19.9,2.8-29.9,3.9
		c-4.6,0.5-9.2,1-13.8,1.4c-4.1,0.4-8.2,0.8-12.3,1.1c-4.2,0.4-8.5,0.7-12.8,0.9c-1.5,0.1-3.1,0.2-4.7,0.3
		c-3.8,0.2-7.7,0.5-11.6,0.6c-0.4,0-0.8,0-1.2,0c-0.4,0-0.8,0.1-1.2,0.1c-8.8,0.4-17.7,0.6-26.5,0.7c-3.3,0-6.5,0.2-9.8,0.2
		c-3.3,0-6.5-0.2-9.8-0.2c-8.8-0.1-17.7-0.3-26.5-0.7c-0.2,0-0.4,0-0.6,0c-0.3,0-0.6,0-1,0c-3.8-0.2-7.6-0.4-11.4-0.6
		c-1.4-0.1-2.8-0.2-4.2-0.3c-4.2-0.3-8.4-0.6-12.6-0.9c-3.7-0.3-7.4-0.6-11.1-0.9c-4.6-0.4-9.1-0.9-13.7-1.4
		c-9.1-1-18.1-2.1-27.2-3.4c-4.5-0.6-8.9-1.3-13.4-2c-6.1-0.9-12.2-2-18.3-3.1c-15.6-2.9-31.2-6.1-46.7-9.8
		c-2.3-0.5-4.6-1.1-6.9-1.7c-9.8-2.4-19.6-5.1-29.4-7.9l-5.3-1.5l-4,13.7l-0.2,0.5L120,534.5l5.3,1.5c44,12.8,88.7,22.4,133.8,29
		c0.4,0,0.8,0.1,1.2,0.2c12.9,1.8,25.9,3.5,38.8,4.8c0.6,0.1,1.2,0.2,1.9,0.2c11.3,1.1,22.5,2.1,33.8,2.8c0.8,0,1.6,0.1,2.3,0.2
		c10.3,0.6,20.6,1.1,30.9,1.5c0.8,0,1.7,0.1,2.5,0.1c9.8,0.3,19.6,0.5,29.4,0.5h2.7c9.9,0,19.8-0.2,29.6-0.5c0.9,0,1.7-0.1,2.6-0.1
		c10.4-0.4,20.7-0.9,31.1-1.6c0.8,0,1.5-0.1,2.3-0.2c11.5-0.8,22.8-1.8,34.3-3c0.6-0.1,1.2-0.1,1.8-0.2c13.2-1.4,26.3-3.1,39.5-5
		c0.4,0,0.7-0.1,1.1-0.2c43.8-6.5,87.2-16,129.8-28.4l5.3-1.5L640.8,399.7z M582.4,546.8c-0.2,0-0.3,0.1-0.5,0.1
		c-14.8,2.8-29.8,5.3-44.7,7.4c-0.6,0.1-1.1,0.2-1.7,0.2c-12.2,1.7-24.5,3.2-36.8,4.4c-0.8,0.1-1.6,0.2-2.4,0.2
		c-10.6,1.1-21.1,2-31.7,2.6c-0.9,0.1-1.9,0.2-2.8,0.2c-9.5,0.6-19.1,1.1-28.7,1.4c-1,0-2,0.1-3,0.1c-9.1,0.3-18.1,0.5-27.2,0.5
		c-0.9,0-1.9,0-2.9,0h-0.2c-9.1,0-18.1-0.1-27.2-0.4c-1,0-2,0-3-0.1c-9.5-0.3-19-0.7-28.4-1.3c-0.9,0-1.9-0.1-2.9-0.2
		c-10.4-0.6-20.9-1.4-31.3-2.4c-0.8-0.1-1.7-0.2-2.5-0.2c-12.1-1.2-24.1-2.6-36.1-4.2c-0.6,0-1.2-0.1-1.8-0.2
		c-14.6-2-29.1-4.3-43.6-7c-0.2,0-0.5,0-0.7-0.1c-29.8-5.5-59.4-12.4-88.6-20.7l23.7-81.6l0.1-0.2l12.1-41.7
		c24.5,7,49.3,12.8,74.3,17.4c3.3,0.6,6.5,1.2,9.7,1.8c12.2,2.1,24.4,4,36.7,5.6c3.8,0.5,7.6,1,11.4,1.4c6,0.7,12,1.4,18.1,1.9
		c3.7,0.4,7.4,0.7,11.1,1c3,0.3,6.1,0.5,9.2,0.7c3.5,0.3,6.9,0.5,10.4,0.7c1.6,0.1,3.2,0.2,4.8,0.3c3.2,0.2,6.5,0.3,9.7,0.5
		c0.9,0.1,1.7,0.1,2.5,0.1c3,0.1,6.1,0.2,9.1,0.3c0.4,0,0.8,0,1.2,0c2.9,0.1,5.9,0.2,8.8,0.2h0.6c2.9,0.1,5.7,0.1,8.5,0.1
		c0.1,0,0.2,0,0.3,0c1.4,0,2.7,0,4.1,0c1.5,0,3,0,4.4,0c0.1,0,0.2,0,0.3,0c2.9,0,5.7,0,8.6-0.1h0.6c2.9,0,5.9-0.1,8.8-0.2
		c0.5,0,0.9,0,1.4,0c3-0.1,6.1-0.2,9.2-0.3c0.9,0,1.8,0,2.7-0.1c3.2-0.1,6.5-0.3,9.7-0.5c1.7-0.1,3.5-0.2,5.2-0.3
		c3.5-0.2,7-0.4,10.5-0.7c3.3-0.2,6.6-0.5,10-0.8c3.7-0.3,7.4-0.6,11.2-1c6.5-0.6,13.1-1.3,19.6-2.1c3.8-0.5,7.5-0.9,11.3-1.5
		c13.3-1.8,26.5-3.9,39.7-6.3c3.1-0.5,6.2-1.1,9.3-1.7c23-4.5,45.7-9.9,68.2-16.3l10.7,37l0.1,0.3l25.1,86.3
		C638.6,534.9,610.6,541.5,582.4,546.8z"/>
	<polygon class="st0" points="338.4,643.3 342.1,650.8 350.3,652 344.4,657.8 345.8,666 338.4,662.1 331.1,666 332.5,657.8 
		326.5,652 334.8,650.8 	"/>
	<polygon class="st0" points="369.2,643.3 372.9,650.8 381.1,652 375.2,657.8 376.6,666 369.2,662.1 361.9,666 363.3,657.8 
		357.3,652 365.5,650.8 	"/>
	<polygon class="st0" points="400,643.3 403.7,650.8 411.9,652 406,657.8 407.4,666 400,662.1 392.6,666 394,657.8 388.1,652 
		396.3,650.8 	"/>
	<polygon class="st0" points="430.8,643.3 434.5,650.8 442.7,652 436.7,657.8 438.1,666 430.8,662.1 423.4,666 424.8,657.8 
		418.9,652 427.1,650.8 	"/>
	<polygon class="st0" points="461.6,643.3 465.2,650.8 473.5,652 467.5,657.8 468.9,666 461.6,662.1 454.2,666 455.6,657.8 
		449.7,652 457.9,650.8 	"/>
	<g>
		<g>
			<path class="st1" d="M293.6,629.2c-0.3,0-0.8,0-1.3,0c-5.7-0.3-7.3-1.6-8.7-3.7c-1.8-2.7-3.1-5.7-4.6-8.6
				c-0.7-1.3-1.3-1.6-2.7-1.6l-0.9,0v7.1c0,4,0.4,4.3,3.8,4.7v1.8h-13.6v-1.8c3.4-0.4,3.8-0.8,3.8-4.7v-18.7c0-3.9-0.4-4.4-3.8-4.7
				v-1.8h12.9c4,0,6.2,0.5,8.1,1.9c1.8,1.3,3,3.5,3,6.5c0,4.3-2.6,6.6-5.6,7.9c0.7,1.5,2.4,4.6,3.7,6.9c1.6,2.7,2.5,4,3.4,5.1
				c1,1.3,1.5,1.7,2.8,2.1L293.6,629.2z M276.6,613.2c1.9,0,3.4-0.3,4.4-1.3c1.5-1.4,2.1-3.2,2.1-5.7c0-5.2-2.7-7-5.2-7
				c-1.2,0-1.8,0.2-2.1,0.5c-0.3,0.3-0.4,0.9-0.4,1.9v11.7H276.6z"/>
			<path class="st1" d="M323.6,620.6c-0.2,1.3-1.5,6.9-1.9,8.3h-23.1v-1.8c4.1-0.4,4.3-0.7,4.3-4.8v-18.6c0-4.1-0.5-4.4-3.6-4.7
				v-1.8h14.5c4.7,0,6.2,0,6.9-0.1c0,0.9,0.3,4.9,0.4,7.9l-1.7,0.2c-0.4-1.7-1.2-3.7-1.9-4.5c-0.8-1-1.4-1.3-3.7-1.3h-2.9
				c-1.7,0-1.9,0.1-1.9,1.8v10.2h4.4c2.5,0,2.9-0.7,3.6-4.2h1.7v10.9H317c-0.7-3.6-1.1-4.2-3.7-4.2H309v8.4c0,3.4,0.1,4.4,2.9,4.4
				h3.2c2.5,0,3.2-0.3,4.1-1.7c1.1-1.4,2-3.2,2.7-4.9L323.6,620.6z"/>
			<path class="st1" d="M347.1,605.2c-0.9-3.1-2.1-6.7-6.2-6.7c-2.6,0-4.3,2-4.3,4.7c0,2.7,1.7,4.3,5.6,6.4c4.8,2.6,7.8,5.1,7.8,10
				c0,5.8-4.4,10-10.8,10c-2.9,0-5.4-0.8-7.5-1.5c-0.3-1.1-1-6.2-1.3-8.5l1.7-0.4c0.9,3.1,3.4,8.4,7.8,8.4c2.7,0,4.4-1.9,4.4-5
				c0-2.8-1.6-4.5-5.4-6.7c-4.6-2.7-7.7-5.2-7.7-10.2c0-5.1,3.7-9.2,10.3-9.2c3.1,0,5.4,0.7,6.4,0.9c0.2,1.8,0.5,4.3,0.8,7.4
				L347.1,605.2z"/>
			<path class="st1" d="M381.5,605.6c-0.5-2.2-1.5-4.1-1.9-4.8c-0.8-1-1.2-1.4-3.8-1.4h-2.9v22.9c0,4.1,0.4,4.4,4.4,4.7v1.8h-14.8
				v-1.8c3.8-0.3,4.2-0.6,4.2-4.7v-22.9H364c-2.5,0-3.2,0.4-4.1,1.6c-0.6,0.9-1.2,2.7-1.8,4.6h-1.7c0.3-3.6,0.6-7.4,0.7-9.7h1.3
				c0.7,1.1,1.2,1.2,2.5,1.2h17.8c1.2,0,1.8-0.3,2.6-1.2h1.3c0,2,0.2,6.3,0.4,9.5L381.5,605.6z"/>
			<path class="st1" d="M405.6,596.5c8.3,0,15,6.6,15,16.2c0,10.4-6.8,16.9-15.2,16.9c-8.9,0-15.4-7.1-15.4-16.5
				C389.9,604.7,395.4,596.5,405.6,596.5z M404.9,598.6c-4.5,0-7.9,4.9-7.9,13.5c0,8.3,3,15.3,9,15.3c4.2,0,7.5-4.5,7.5-13.4
				C413.5,604.4,410.1,598.6,404.9,598.6z"/>
			<path class="st1" d="M458.4,611.4c4.7,0.9,8,3.4,8,8c0,3-1.7,5.9-4.3,7.4c-2.3,1.4-5.2,2.1-8.5,2.1h-12.5v-1.8
				c3.4-0.4,3.8-0.6,3.8-4.7v-18.6c0-4.1-0.6-4.5-3.7-4.8v-1.8h13.6c3.4,0,5.5,0.5,7.3,1.7c1.7,1.2,2.7,3,2.7,5.4
				C464.8,608.3,461.3,610.8,458.4,611.4z M452.8,610.8c4.2,0,5.8-2,5.8-5.6c0-4.2-2.5-5.9-5-5.9c-1.1,0-1.7,0.1-2.1,0.4
				c-0.5,0.3-0.4,0.8-0.4,1.8v9.3H452.8z M451,622.2c0,3.5,1.5,4.6,3.9,4.5c2.5,0,4.9-2.4,4.9-6.9c0-4.7-2.2-7-7.2-7H451V622.2z"/>
			<path class="st1" d="M489.1,628.9v-1.8c2.8-0.4,2.8-1,2.2-3.1c-0.4-1.5-1.2-3.7-1.8-5.6h-8.7c-0.5,1.5-1.1,3.4-1.6,4.9
				c-0.9,3.1,0.1,3.5,3.7,3.8v1.8h-11v-1.8c2.8-0.4,3.5-0.8,5-4.9l9.3-25.2l2.1-0.4c2.9,8.5,5.9,17.2,8.8,25.3
				c1.6,4.5,2.1,4.9,5,5.3v1.8H489.1z M485.2,605.6c-1.3,3.5-2.5,6.8-3.7,10.3h7.1L485.2,605.6z"/>
			<path class="st1" d="M535.2,629.2c-0.3,0-0.8,0-1.3,0c-5.7-0.3-7.3-1.6-8.7-3.7c-1.8-2.7-3.1-5.7-4.6-8.6
				c-0.7-1.3-1.3-1.6-2.7-1.6l-0.9,0v7.1c0,4,0.4,4.3,3.8,4.7v1.8h-13.6v-1.8c3.4-0.4,3.8-0.8,3.8-4.7v-18.7c0-3.9-0.4-4.4-3.8-4.7
				v-1.8h12.9c4,0,6.2,0.5,8.1,1.9c1.8,1.3,3,3.5,3,6.5c0,4.3-2.6,6.6-5.6,7.9c0.7,1.5,2.4,4.6,3.7,6.9c1.6,2.7,2.5,4,3.4,5.1
				c1,1.3,1.5,1.7,2.8,2.1L535.2,629.2z M518.2,613.2c1.9,0,3.4-0.3,4.4-1.3c1.5-1.4,2.1-3.2,2.1-5.7c0-5.2-2.7-7-5.2-7
				c-1.2,0-1.8,0.2-2.1,0.5c-0.3,0.3-0.4,0.9-0.4,1.9v11.7H518.2z"/>
		</g>
	</g>
	<path class="st1" d="M284.6,266.5c8.3-13.6,18.1-32.7,24.2-55.1c-4.8-6.9-9.7-13.8-14.6-20.6c3.9-8.8,7.9-17.5,12-26.2
		c5.4,7.5,10.7,15.1,15.9,22.7c-3.6,7.6-7.2,15.3-10.7,23c3.9,7.9,14.9,28.6,32.2,46.1c-15.7,10.1-32.8,13.6-53.9,11
		C288,267.2,286.3,266.9,284.6,266.5z M513,265.5c1.4-0.2,2.8-0.4,4.2-0.6c-8-13.5-17.1-31.9-22.8-53.4c4.6-6.6,9.3-13.2,14.1-19.7
		c-3.9-8.8-7.9-17.5-11.9-26.2c-5.4,7.5-10.8,15-16,22.6c3.7,7.8,7.3,15.6,10.8,23.4c-4.1,8.2-14.5,27.1-30.3,43.5
		C476.3,264.2,493.4,267.6,513,265.5z M533.5,382.5c-0.5-3.3-3.1-5.6-5.9-5c-84.5,16.6-170.7,16.6-255.2,0c-2.8-0.5-5.4,1.7-5.9,5
		c0,0,0,0.1,0,0.1c-0.5,3.4,1.4,6.6,4.2,7.1c85.6,16.8,172.9,16.8,258.5,0c2.8-0.6,4.7-3.8,4.2-7.1
		C533.5,382.6,533.5,382.6,533.5,382.5z M599.5,211.8c-7.5,12.8-14.8,25.6-22,38.6c-21.2,39.3-40.7,79.4-58.6,120.4
		c-86,15.8-150.2,11-237.9,0c-17.6-40.4-36.9-80-57.8-118.8c-7.4-13.5-15-26.8-22.8-40.1c8,3.9,15.9,8,23.7,12.2
		c-0.2,7.3-0.3,14.5-0.4,21.8c10.4,6,33.8,18.2,59.3,23.1c2.1,0.4,4.1,0.8,6.2,1c18.5,2.3,37.6,0.4,56.2-11.7
		c17.1-11.1,33.7-31,48.9-64.2c-5.2-9-10.5-18-15.9-26.9c6.9-12.4,13.9-24.6,21.3-36.8c7.3,12.2,14.4,24.4,21.3,36.8
		c-5.2,8.5-10.2,17.1-15.2,25.7c17.2,33.6,35.2,53.3,53.3,64.2c18.3,11,36.6,12.9,54.2,11.1c1.8-0.2,3.6-0.5,5.4-0.8
		c24.9-4.2,47.4-15.7,57.5-21.5c-0.1-7.3-0.2-14.6-0.4-21.9C583.6,219.8,591.5,215.7,599.5,211.8z M286.4,333.8
		c-2.1-8.9-4.2-17.7-6.3-26.6c-6.4-5.3-13-10.6-19.6-15.7c2.3,8.8,4.6,17.6,6.8,26.4C273.7,323.1,280.1,328.4,286.4,333.8z
		 M340,336.3l-4.3-25.6l-18.2-15.5c1.5,7.8,4.4,23.3,4.4,23.3L340,336.3z M474.8,295.2l-18.2,15.5l-4.3,25.6l18.1-17.7
		C470.4,318.5,473.3,303,474.8,295.2z M540.2,286.6c-6.7,5.1-13.2,10.4-19.7,15.7c-2.1,8.8-4.2,17.7-6.3,26.6
		c6.3-5.4,12.7-10.7,19.2-15.9C535.6,304.1,537.9,295.3,540.2,286.6z M412.5,275.1v1.8c12.8,0,9.5,11.2,9.2,12.1l-21.1,49.8
		l-21.1-49.8c-0.3-0.9-3.5-12.1,9.2-12.1v-1.8h-41.4v1.8c5.2,0,10.2,0.3,14.6,9.9c0,0,18.3,44,37.3,84h2.7
		c18.9-39.9,37.3-84,37.3-84c4.5-9.7,9.4-9.9,14.6-9.9v-1.8H412.5z"/>
	<path class="st0" d="M658,400.7c-0.5,0-0.9-0.1-1.4-0.2c-2.4-0.8-3.7-3.4-3-5.8c1-3.1,2-6.3,2.9-9.5c6.6-23.5,10-48,10-72.6
		c0-62.8-22.3-123.8-62.7-171.7c-1.6-1.9-1.4-4.8,0.6-6.5c1.9-1.6,4.8-1.4,6.5,0.5c41.8,49.6,64.8,112.7,64.8,177.6
		c0,25.5-3.5,50.8-10.4,75.1c-0.9,3.3-1.9,6.6-3,9.8C661.7,399.4,659.9,400.7,658,400.7z"/>
	<path class="st0" d="M142,400.7c-1.9,0-3.7-1.2-4.4-3.2c-8.9-27.4-13.3-56-13.3-85c0-59.3,18.5-115.8,53.6-163.4
		c1.5-2,4.4-2.5,6.4-1c2,1.5,2.5,4.4,1,6.4c-33.9,46-51.8,100.6-51.8,157.9c0,28.1,4.3,55.7,12.9,82.2c0.8,2.4-0.5,5-3,5.8
		C143,400.6,142.5,400.7,142,400.7z"/>
	<path class="st1" d="M648.9,376.3c-0.2,0-0.4,0-0.6-0.1c-1.2-0.3-2-1.5-1.7-2.8c4.9-19.8,7.4-40.4,7.4-61
		c0-60.1-21.3-118.3-60.1-164.1c-0.8-1-0.7-2.4,0.3-3.2c1-0.8,2.4-0.7,3.2,0.3c39.5,46.6,61.2,105.9,61.2,167.1
		c0,21-2.5,41.9-7.5,62.1C650.9,375.6,649.9,376.3,648.9,376.3z"/>
	<path class="st1" d="M151.1,376.3c-1,0-2-0.7-2.2-1.7c-5-20.2-7.5-41.1-7.5-62.1c0-56.5,17.9-110.1,51.7-155.1
		c0.8-1,2.2-1.2,3.2-0.5c1,0.8,1.2,2.2,0.5,3.2C163.5,204.3,146,257,146,312.5c0,20.6,2.5,41.1,7.4,61c0.3,1.2-0.4,2.5-1.7,2.8
		C151.5,376.3,151.3,376.3,151.1,376.3z"/>
	<path class="st2" d="M151.1,374"/>
</g>
</svg>
